<svg xmlns="http://www.w3.org/2000/svg" width="98.619" height="98.619" viewBox="0 0 98.619 98.619"><defs><style>.a{fill:none;}.b{fill:#2ec67a;}</style></defs><path class="a" d="M0,0H98.619V98.619H0Z"/><path class="b" d="M44.236,2A42.236,42.236,0,1,0,86.471,44.236,42.251,42.251,0,0,0,44.236,2Zm0,76.024A33.789,33.789,0,1,1,78.024,44.236,33.833,33.833,0,0,1,44.236,78.024ZM60.623,28.566,35.789,53.4l-7.94-7.94a4.211,4.211,0,1,0-5.955,5.955L32.832,62.355a4.206,4.206,0,0,0,5.955,0L66.621,34.521a4.206,4.206,0,0,0,0-5.955A4.257,4.257,0,0,0,60.623,28.566Z" transform="translate(5.074 5.074)"/></svg>