<svg xmlns="http://www.w3.org/2000/svg" width="82.542" height="80.87" viewBox="0 0 82.542 80.87"><defs><style>.a{fill:#f43d19;stroke:#fff;stroke-width:0.5px;}</style></defs><g transform="translate(-1523.75 -539.75)"><path class="a" d="M43.521,2.5C20.895,2.5,2.5,20.52,2.5,42.685S20.895,82.87,43.521,82.87s41.021-18.02,41.021-40.185S66.147,2.5,43.521,2.5Zm0,71.657c-17.7,0-32.126-14.128-32.126-31.471S25.817,11.214,43.521,11.214,75.647,25.342,75.647,42.685,61.225,74.157,43.521,74.157Z" transform="translate(1521.5 537.5)"/><g transform="translate(1559.815 560.625)"><path class="a" d="M49.114,51.148a4.232,4.232,0,0,0,4.214-4.214V27.514a4.214,4.214,0,0,0-8.429,0V46.851A4.25,4.25,0,0,0,49.114,51.148Z" transform="translate(-43.909 -23.3)"/><circle class="a" cx="5.206" cy="5.206" r="5.206" transform="translate(0 31.402)"/></g></g></svg>