<svg xmlns="http://www.w3.org/2000/svg" width="22.099" height="22.099" viewBox="0 0 22.099 22.099"><defs><style>.a{fill:none;}.b{fill:#00326c;}</style></defs><path class="a" d="M0,0H22.1V22.1H0Z" transform="translate(0)"/><path class="b" d="M20.257,17.891H14.733V14.208H12.265a6.445,6.445,0,1,1,0-5.525H22.1v5.525H20.257Zm-3.683-1.842h1.842V12.366h1.842V10.525H10.994l-.212-.617a4.6,4.6,0,1,0,0,3.075l.212-.617h5.58ZM6.445,14.208a2.762,2.762,0,1,1,2.762-2.762A2.77,2.77,0,0,1,6.445,14.208Zm0-3.683a.921.921,0,1,0,.921.921A.923.923,0,0,0,6.445,10.525Z" transform="translate(0 -0.396)"/></svg>