<svg xmlns="http://www.w3.org/2000/svg" width="114.398" height="50.498" viewBox="0 0 114.398 50.498"><defs><style>.a{fill:#00326c;}</style></defs><g transform="translate(-32.198 -29.14)"><path class="a" d="M110.6,65.081V29.935h7.537l13.047,21.546V29.935h7.491V65.081h-7.491L118.138,43.52V65.081Zm-48.191,0V29.935H73.617l5.755,21.546L84.82,29.935H96.027V65.081h-7.5L88.51,43.52,82.962,65.081H75.44l-5.5-21.561-.023,21.561ZM99.345,29.935H107.3V65.081H99.345ZM32.432,65.081V29.935h26.1v6.9H40.44V43.2h16.8v6.886H40.44V58.21H59.267v6.871Z" transform="translate(-0.082 -0.28)"/><path class="a" d="M132.137,97.166V97.6a3.246,3.246,0,0,0,.864,2.5,3.3,3.3,0,0,0,2.339.8,3.261,3.261,0,0,0,2.508-.911,3.386,3.386,0,0,0,.849-2.4,2.83,2.83,0,0,0-.452-1.7,3.8,3.8,0,0,0-1.711-1.11l-1.972-.756a1.514,1.514,0,0,1-1.074-1.512,2.03,2.03,0,0,1,.459-1.457,2,2,0,0,1,1.485-.481,1.61,1.61,0,0,1,1.216.481,1.591,1.591,0,0,1,.473,1.1,3.173,3.173,0,0,1-.021.389h1.236c.014-.171.021-.337.021-.5a2.355,2.355,0,0,0-.805-1.809,3.254,3.254,0,0,0-2.3-.742,2.869,2.869,0,0,0-3,2.982,3.311,3.311,0,0,0,.361,1.611,2.873,2.873,0,0,0,1.526,1.117l2.241.87a1.7,1.7,0,0,1,.833.615,2.262,2.262,0,0,1,.249,1.2,1.938,1.938,0,0,1-.517,1.414,2.07,2.07,0,0,1-1.54.523,2.11,2.11,0,0,1-1.534-.489,2.209,2.209,0,0,1-.495-1.618v-.538Zm-4.392-6.6,1.42,5.853h-2.84Zm-2.488,10.05.778-3.109h3.42l.834,3.109h1.337L128.572,89.76h-1.6l-3.054,10.855Zm-5.522-5.837h-1.887v-3.93h1.689q2.275,0,2.276,1.937,0,1.992-2.078,1.993m3.8,5.583q-.3-.041-.431-.777-.206-1.535-.234-2.347a2.164,2.164,0,0,0-.438-1.371,2.321,2.321,0,0,0-1.506-.607,2.326,2.326,0,0,0,2.12-2.6,2.894,2.894,0,0,0-.756-2.127,3.889,3.889,0,0,0-2.8-.77h-2.848v10.855h1.2V95.866h2.056a1.792,1.792,0,0,1,1.365.53,2.366,2.366,0,0,1,.5,1.675,10.235,10.235,0,0,0,.071,1.216,9.39,9.39,0,0,0,.267,1.328h1.428Zm-15.326-2.374a2.76,2.76,0,0,0,.835,2.156,4.265,4.265,0,0,0,4.806.028,2.64,2.64,0,0,0,.876-2.142V89.76h-1.2v7.886q0,2.163-2.056,2.164t-2.058-2.241V89.76h-1.2Zm-7.7-7.138h2.826v9.767h1.2V90.848h2.828V89.76h-6.855Zm-1.8,6.707q-.235,2.256-1.888,2.255a1.673,1.673,0,0,1-1.6-1.061,7.724,7.724,0,0,1-.5-3.166,9.447,9.447,0,0,1,.558-4.036,1.723,1.723,0,0,1,1.561-.982q1.874,0,1.958,2.418h1.236v-.312a3.186,3.186,0,0,0-.854-2.3,3,3,0,0,0-2.269-.89,2.811,2.811,0,0,0-2.593,1.385,8.4,8.4,0,0,0-.835,4.234v.8a7.1,7.1,0,0,0,.8,3.738,3.241,3.241,0,0,0,4.7.467,3.282,3.282,0,0,0,.941-2.093l.112-1.293H98.8Zm-13.2.431a2.765,2.765,0,0,0,.834,2.156,4.264,4.264,0,0,0,4.806.028,2.634,2.634,0,0,0,.876-2.142V89.76h-1.2v7.886q0,2.163-2.057,2.164t-2.056-2.241V89.76h-1.2Zm-5.2-3.208H78.425v-3.93h1.689q2.275,0,2.276,1.937,0,1.992-2.078,1.993m3.8,5.583q-.3-.041-.43-.777-.206-1.535-.234-2.347a2.16,2.16,0,0,0-.438-1.371,2.317,2.317,0,0,0-1.505-.607,2.326,2.326,0,0,0,2.12-2.6,2.894,2.894,0,0,0-.756-2.127,3.889,3.889,0,0,0-2.8-.77H77.223v10.855h1.2V95.866h2.056a1.792,1.792,0,0,1,1.365.53,2.366,2.366,0,0,1,.5,1.675,10.239,10.239,0,0,0,.071,1.216,9.475,9.475,0,0,0,.267,1.328h1.428ZM69.452,90.848H72.28v9.767h1.2V90.848h2.826V89.76H69.452Zm-7.006,6.318V97.6a3.248,3.248,0,0,0,.861,2.5,3.3,3.3,0,0,0,2.339.8,3.266,3.266,0,0,0,2.51-.911,3.391,3.391,0,0,0,.848-2.4,2.821,2.821,0,0,0-.452-1.7,3.788,3.788,0,0,0-1.712-1.11l-1.97-.756A1.516,1.516,0,0,1,63.795,92.5a2.022,2.022,0,0,1,.46-1.457,2,2,0,0,1,1.484-.481,1.608,1.608,0,0,1,1.216.481,1.58,1.58,0,0,1,.473,1.1,3.184,3.184,0,0,1-.02.389h1.236c.014-.171.021-.337.021-.5a2.351,2.351,0,0,0-.805-1.809,3.254,3.254,0,0,0-2.3-.742,2.869,2.869,0,0,0-3,2.982,3.311,3.311,0,0,0,.361,1.611,2.878,2.878,0,0,0,1.526,1.117l2.241.87a1.7,1.7,0,0,1,.834.615,2.251,2.251,0,0,1,.248,1.2,1.942,1.942,0,0,1-.516,1.414,2.076,2.076,0,0,1-1.541.523,2.1,2.1,0,0,1-1.533-.489,2.2,2.2,0,0,1-.495-1.618v-.538Zm-1.065,3.449V99.527H57.163v-4h3.924V94.438H57.163v-3.59h4.184V89.76H55.962v10.855ZM50.913,90.565q2.361,0,2.359,4.262a10.651,10.651,0,0,1-.487,3.895A1.8,1.8,0,0,1,50.97,99.81a1.849,1.849,0,0,1-1.846-1.061,10.362,10.362,0,0,1-.495-3.887q0-4.3,2.284-4.3m-2.707,9a2.99,2.99,0,0,0,2.771,1.336,3.047,3.047,0,0,0,2.63-1.251q.9-1.249.9-4.636a7.648,7.648,0,0,0-.892-4.289,3.4,3.4,0,0,0-5.342.106,7.254,7.254,0,0,0-.884,3.957,9.91,9.91,0,0,0,.813,4.778m-1.947,1.053V99.527H42.04v-4h3.923V94.438H42.04v-3.59h4.184V89.76H40.837v10.855Zm-8.371-4.509a6.5,6.5,0,0,1-.466,2.685,1.737,1.737,0,0,1-1.746,1.019,1.819,1.819,0,0,1-1.7-.941,7.831,7.831,0,0,1-.538-3.5,9.113,9.113,0,0,1,.538-3.753,1.831,1.831,0,0,1,1.76-1.053q1.935,0,2.029,2.3H39a3.485,3.485,0,0,0-.849-2.482,3.1,3.1,0,0,0-2.388-.911,2.965,2.965,0,0,0-2.686,1.371,8.615,8.615,0,0,0-.878,4.474,7.864,7.864,0,0,0,.884,4.3,2.931,2.931,0,0,0,2.573,1.28,2.375,2.375,0,0,0,2.516-1.923v1.754h.919V95.018H35.513v1.088Z" transform="translate(0 -21.26)"/><path class="a" d="M202.886,30.636h-.613v1.178h.613a1.472,1.472,0,0,0,.731-.131.478.478,0,0,0,.21-.44.506.506,0,0,0-.221-.465,1.38,1.38,0,0,0-.72-.142m.093-.335a1.868,1.868,0,0,1,1.025.223.763.763,0,0,1,.332.683.841.841,0,0,1-.209.58.918.918,0,0,1-.565.283l.731,1.51h-.564l-.691-1.441h-.766v1.441h-.493V30.3Zm2.453,1.7a2.593,2.593,0,0,0-.188-.982,2.457,2.457,0,0,0-.534-.815,2.656,2.656,0,0,0-.83-.554,2.616,2.616,0,0,0-.986-.19,2.5,2.5,0,0,0-.958.187,2.465,2.465,0,0,0-.81.541,2.712,2.712,0,0,0-.564.843,2.4,2.4,0,0,0-.2.963,2.433,2.433,0,0,0,.193.959,2.6,2.6,0,0,0,1.378,1.374,2.46,2.46,0,0,0,.96.193,2.513,2.513,0,0,0,.975-.195,2.666,2.666,0,0,0,.841-.558,2.341,2.341,0,0,0,.536-.793,2.508,2.508,0,0,0,.187-.973m-2.539-2.859a2.865,2.865,0,0,1,1.111.215,2.837,2.837,0,0,1,1.526,1.536,2.963,2.963,0,0,1,0,2.189,2.7,2.7,0,0,1-.612.906,2.932,2.932,0,0,1-.941.631,2.838,2.838,0,0,1-3.708-3.715,2.907,2.907,0,0,1,.631-.941,2.672,2.672,0,0,1,.9-.61,2.808,2.808,0,0,1,1.088-.21" transform="translate(-59.146 0)"/></g></svg>