<svg xmlns="http://www.w3.org/2000/svg" width="26.932" height="26.932" viewBox="0 0 26.932 26.932"><defs><style>.a{fill:none;}.b{fill:#00326c;}</style></defs><g transform="translate(0)"><path class="a" d="M0,0H26.932V26.932H0Z" transform="translate(0)"/><path class="b" d="M12.977,6.132a2.357,2.357,0,1,1-2.357,2.357,2.356,2.356,0,0,1,2.357-2.357m0,10.1c3.333,0,6.845,1.638,6.845,2.357v1.234H6.132V18.588c0-.718,3.512-2.357,6.845-2.357M12.977,4a4.489,4.489,0,1,0,4.489,4.489A4.487,4.487,0,0,0,12.977,4Zm0,10.1C9.981,14.1,4,15.6,4,18.588v3.367H21.955V18.588C21.955,15.6,15.974,14.1,12.977,14.1Z" transform="translate(0.489 0.489)"/></g></svg>