<svg xmlns="http://www.w3.org/2000/svg" width="78.851" height="78.078" viewBox="0 0 78.851 78.078"><defs><style>.a{fill:#fff;}</style></defs><path class="a" d="M-208.234,185.6V194.7a16.137,16.137,0,0,1,4.543,0V183.333a2.272,2.272,0,0,0-2.271-2.271h-11.366a16.149,16.149,0,0,1,0,4.543Z" transform="translate(272.594 -171.825)"/><path class="a" d="M-374.6,365.6a16.135,16.135,0,0,1,0-4.543h-22.733a16.148,16.148,0,0,1,0,4.543Z" transform="translate(425.337 -324.567)"/><path class="a" d="M-512.726,490.1V481a16.188,16.188,0,0,1-4.543,0v11.366A2.272,2.272,0,0,0-515,494.64h11.366a16.149,16.149,0,0,1,0-4.543Z" transform="translate(527.114 -426.345)"/><path class="a" d="M-398.158,132.186a11.523,11.523,0,0,0,11.492,10.894,11.522,11.522,0,0,0,11.509-11.509,11.522,11.522,0,0,0-11.509-11.509,11.523,11.523,0,0,0-11.492,10.893" transform="translate(426.04 -120.062)"/><ellipse class="a" cx="11.158" cy="11.902" rx="11.158" ry="11.902" transform="translate(28.267 54.274)"/><ellipse class="a" cx="11.902" cy="11.158" rx="11.902" ry="11.158" transform="translate(55.047 27.495)"/><ellipse class="a" cx="11.902" cy="11.158" rx="11.902" ry="11.158" transform="translate(0 27.495)"/></svg>